<?xml version="1.0" encoding="UTF-8" standalone="no"?>
<!DOCTYPE svg PUBLIC "-//W3C//DTD SVG 1.1//EN" "http://www.w3.org/Graphics/SVG/1.1/DTD/svg11.dtd">
<svg width="100%" height="100%" viewBox="0 0 456 456" version="1.1" xmlns="http://www.w3.org/2000/svg"
     xml:space="preserve"
     style="fill-rule:evenodd;clip-rule:evenodd;stroke-linejoin:round;stroke-miterlimit:2;">
    <g transform="matrix(7.125,0,0,7.125,57,57)">
        <path d="M24,43C21.367,43 18.9,42.5 16.6,41.5C14.3,40.5 12.292,39.142 10.575,37.425C8.858,35.708 7.5,33.7 6.5,31.4C5.5,29.1 5,26.633 5,24C5,21.367 5.5,18.9 6.5,16.6C7.5,14.3 8.858,12.292 10.575,10.575C12.292,8.858 14.3,7.5 16.6,6.5C18.9,5.5 21.367,5 24,5L24,1.8C24,1.467 24.158,1.242 24.475,1.125C24.792,1.008 25.067,1.067 25.3,1.3L30.95,6.95C31.25,7.25 31.4,7.6 31.4,8C31.4,8.4 31.25,8.75 30.95,9.05L25.3,14.7C25.067,14.933 24.792,14.992 24.475,14.875C24.158,14.758 24,14.533 24,14.2L24,11C20.4,11 17.333,12.267 14.8,14.8C12.267,17.333 11,20.4 11,24C11,26.2 11.508,28.242 12.525,30.125C13.542,32.008 14.9,33.533 16.6,34.7C17.133,33.767 17.925,32.975 18.975,32.325C20.025,31.675 21.233,31.267 22.6,31.1C22.5,30.4 22.367,29.7 22.2,29C22.033,28.3 21.833,27.65 21.6,27.05C21.233,27.35 20.833,27.583 20.4,27.75C19.967,27.917 19.5,28 19,28C17.9,28 16.958,27.608 16.175,26.825C15.392,26.042 15,25.1 15,24L15,22C15,21.633 14.967,21.308 14.9,21.025C14.833,20.742 14.717,20.45 14.55,20.15C14.417,19.883 14.433,19.633 14.6,19.4C14.767,19.167 14.983,19.05 15.25,19.05C16.783,19.117 18.45,19.458 20.25,20.075C22.05,20.692 22.967,22 23,24C23,24.3 22.975,24.575 22.925,24.825C22.875,25.075 22.783,25.333 22.65,25.6C22.217,25.267 21.783,24.967 21.35,24.7C20.917,24.433 20.467,24.2 20,24C20.567,24.433 21.217,25.1 21.95,26C22.683,26.9 23.367,27.967 24,29.2C24.667,27.567 25.5,25.958 26.5,24.375C27.5,22.792 28.667,21.333 30,20C29.233,20.533 28.5,21.1 27.8,21.7C27.1,22.3 26.417,22.933 25.75,23.6C25.517,23.233 25.333,22.825 25.2,22.375C25.067,21.925 25,21.467 25,21C25,19.6 25.483,18.417 26.45,17.45C27.417,16.483 28.6,16 30,16L32,16C32.467,16 32.958,15.942 33.475,15.825C33.992,15.708 34.433,15.483 34.8,15.15C35.033,14.917 35.3,14.858 35.6,14.975C35.9,15.092 36.05,15.317 36.05,15.65C36.05,16.483 35.992,17.492 35.875,18.675C35.758,19.858 35.492,20.992 35.075,22.075C34.658,23.158 34.05,24.083 33.25,24.85C32.45,25.617 31.367,26 30,26C29.5,26 29.025,25.933 28.575,25.8C28.125,25.667 27.717,25.483 27.35,25.25C27.117,25.883 26.85,26.725 26.55,27.775C26.25,28.825 26.017,29.95 25.85,31.15C27.117,31.383 28.233,31.817 29.2,32.45C30.167,33.083 30.9,33.833 31.4,34.7C32.8,33.733 33.967,32.533 34.9,31.1C35.833,29.667 36.467,28.083 36.8,26.35C36.967,25.517 37.342,24.817 37.925,24.25C38.508,23.683 39.2,23.4 40,23.4C40.867,23.4 41.592,23.708 42.175,24.325C42.758,24.942 42.983,25.667 42.85,26.5C42.25,31.2 40.175,35.125 36.625,38.275C33.075,41.425 28.867,43 24,43Z"
              style="fill:white;fill-rule:nonzero;"/>
    </g>
</svg>
